<svg width="30" height="30" viewBox="0 0 30 30" fill="none" xmlns="http://www.w3.org/2000/svg">
<path d="M25.59 14.9962C25.0453 14.1633 24.3047 13.4766 23.433 12.9963C22.5613 12.516 21.5851 12.2567 20.59 12.2412C20.575 11.8104 20.5201 11.382 20.4263 10.9612C20.3925 10.7974 20.3261 10.642 20.2312 10.5043C20.1362 10.3666 20.0146 10.2493 19.8735 10.1595C19.7324 10.0696 19.5747 10.009 19.4097 9.98123C19.2448 9.95344 19.0759 9.95904 18.9132 9.99769C18.7504 10.0364 18.5971 10.1073 18.4623 10.2063C18.3274 10.3053 18.2138 10.4303 18.1282 10.5741C18.0426 10.7178 17.9867 10.8772 17.9638 11.0429C17.9409 11.2086 17.9515 11.3772 17.995 11.5387C18.0503 11.7858 18.0845 12.0371 18.0975 12.29C16.7032 12.4629 15.3357 12.8081 14.0263 13.3175C14.055 11.8125 14.1225 10.3087 14.2725 8.80874L14.32 8.33124C15.7847 8.13234 17.2376 7.85486 18.6725 7.49999L18.8225 7.46249C18.9873 7.42844 19.1434 7.36149 19.2817 7.26564C19.4199 7.16979 19.5374 7.04702 19.6271 6.90469C19.7168 6.76236 19.7768 6.60339 19.8036 6.4373C19.8304 6.27122 19.8233 6.10144 19.7829 5.93814C19.7425 5.77483 19.6696 5.62137 19.5684 5.48693C19.4673 5.35249 19.3401 5.23985 19.1944 5.15575C19.0487 5.07166 18.8875 5.01784 18.7205 4.99751C18.5535 4.97719 18.3841 4.99079 18.2225 5.03749L18.07 5.07499C16.9175 5.36249 15.75 5.57999 14.5775 5.76249L14.7663 3.87499C14.7994 3.54513 14.7002 3.2156 14.4904 2.95891C14.3865 2.83181 14.2586 2.72642 14.114 2.64875C13.9693 2.57108 13.8109 2.52265 13.6475 2.50624C13.3177 2.47309 12.9881 2.57233 12.7314 2.78214C12.4748 2.99194 12.3119 3.29513 12.2788 3.62499L12.0338 6.07499C10.8663 6.17874 9.69627 6.24999 8.52252 6.24999C8.191 6.24999 7.87306 6.38169 7.63864 6.61611C7.40422 6.85053 7.27252 7.16847 7.27252 7.49999C7.27252 7.83151 7.40422 8.14945 7.63864 8.38387C7.87306 8.61829 8.191 8.74999 8.52252 8.74999C9.61002 8.74999 10.6975 8.69249 11.7813 8.60749C11.5988 10.5595 11.5141 12.5195 11.5275 14.48C11.36 14.5712 11.19 14.6575 11.0238 14.755C10.1736 15.2419 9.35943 15.7891 8.58752 16.3925L8.56002 16.415C7.30553 17.3815 6.19116 18.5173 5.24877 19.79C4.81137 20.395 4.56423 21.1166 4.5389 21.8627C4.51358 22.6088 4.71123 23.3455 5.1066 23.9788C5.50197 24.612 6.07713 25.113 6.7586 25.4178C7.44007 25.7226 8.19694 25.8174 8.93252 25.69C10.1734 25.4548 11.3699 25.0271 12.4788 24.4225C12.6332 24.6651 12.8668 24.8469 13.14 24.9368C13.4131 25.0267 13.709 25.0192 13.9773 24.9157C14.2457 24.8122 14.4699 24.6189 14.6119 24.3688C14.7538 24.1187 14.8049 23.8272 14.7563 23.5437C14.725 23.3625 14.7113 23.18 14.6838 22.9975C15.2608 22.551 15.8094 22.0688 16.3263 21.5537C17.347 20.5358 18.2299 19.3886 18.9525 18.1412L19.0338 17.9937C19.1821 17.7312 19.3204 17.4667 19.4488 17.2C19.5146 17.0608 19.5775 16.9221 19.6375 16.7837C19.7903 16.4409 19.9275 16.0914 20.0488 15.7362L20.1613 15.3775C20.2238 15.1662 20.2875 14.9562 20.3375 14.7475L20.3438 14.725C20.9416 14.7169 21.5329 14.8509 22.0688 15.1161C22.6047 15.3812 23.07 15.7698 23.4263 16.25C24.7 18.4587 22.2225 22.4712 17.905 25.1925C17.7661 25.2801 17.6459 25.3941 17.5511 25.5282C17.4563 25.6622 17.3888 25.8137 17.3526 25.9738C17.3163 26.1339 17.3119 26.2996 17.3397 26.4614C17.3675 26.6232 17.4268 26.778 17.5144 26.9169C17.602 27.0557 17.716 27.176 17.8501 27.2708C17.9841 27.3656 18.1356 27.433 18.2957 27.4693C18.4558 27.5056 18.6215 27.51 18.7833 27.4822C18.9451 27.4544 19.0999 27.3951 19.2388 27.3075C24.8625 23.7625 27.5938 18.4712 25.59 14.9962ZM8.49502 23.2287C8.25053 23.2683 7.99979 23.2347 7.77433 23.1322C7.54886 23.0297 7.35872 22.8629 7.22782 22.6526C7.09691 22.4424 7.03107 22.1981 7.03858 21.9506C7.04609 21.703 7.12661 21.4632 7.27002 21.2612C8.08795 20.1675 9.05144 19.1905 10.1338 18.3575L10.1675 18.3312C10.6275 17.9773 11.1047 17.6465 11.5975 17.34C11.6725 18.8337 11.8138 20.3225 12.005 21.8075C10.9334 22.4951 9.74314 22.9771 8.49502 23.2287ZM17.6575 15C17.543 15.3317 17.4112 15.6571 17.2625 15.975C17.1917 16.125 17.1167 16.2742 17.0375 16.4225C16.9167 16.6542 16.7871 16.885 16.6488 17.115C16.5429 17.29 16.4325 17.4642 16.3175 17.6375C15.8016 18.4089 15.2122 19.1285 14.5575 19.7862C14.47 19.8737 14.3788 19.9525 14.29 20.0362C14.1542 18.7054 14.0663 17.3712 14.0263 16.0337C15.1984 15.4948 16.4328 15.103 17.7013 14.8675L17.6575 15Z" fill="#A7A7A7"/>
</svg>
