<svg width="30" height="30" viewBox="0 0 30 30" fill="none" xmlns="http://www.w3.org/2000/svg">
<path d="M15 26.25C12.125 26.25 9.62 25.2971 7.485 23.3912C5.35 21.4854 4.12583 19.105 3.8125 16.25H6.375C6.66667 18.4167 7.63042 20.2083 9.26625 21.625C10.9021 23.0417 12.8133 23.75 15 23.75C17.4375 23.75 19.5054 22.9012 21.2037 21.2037C22.9021 19.5062 23.7508 17.4383 23.75 15C23.7492 12.5617 22.9004 10.4942 21.2037 8.7975C19.5071 7.10083 17.4392 6.25167 15 6.25C13.5625 6.25 12.2188 6.58333 10.9687 7.25C9.71875 7.91667 8.66667 8.83333 7.8125 10H11.25V12.5H3.75V5H6.25V7.9375C7.3125 6.60417 8.60958 5.57292 10.1412 4.84375C11.6729 4.11458 13.2925 3.75 15 3.75C16.5625 3.75 18.0262 4.04708 19.3912 4.64125C20.7562 5.23542 21.9438 6.03708 22.9538 7.04625C23.9638 8.05542 24.7658 9.24292 25.36 10.6087C25.9542 11.9746 26.2508 13.4383 26.25 15C26.2492 16.5617 25.9525 18.0254 25.36 19.3912C24.7675 20.7571 23.9654 21.9446 22.9538 22.9537C21.9421 23.9629 20.7546 24.765 19.3912 25.36C18.0279 25.955 16.5642 26.2517 15 26.25ZM18.5 20.25L13.75 15.5V8.75H16.25V14.5L20.25 18.5L18.5 20.25Z" fill="#A7A7A7"/>
</svg>
