<svg width="30" height="30" viewBox="0 0 30 30" fill="none" xmlns="http://www.w3.org/2000/svg">
<path d="M24.7837 7.96125L13.2881 11.6962C13.1532 11.7833 12.9983 11.8343 12.8381 11.8444L8.88933 13.125H25.3125C25.5611 13.125 25.7996 13.2238 25.9754 13.3996C26.1512 13.5754 26.25 13.8139 26.25 14.0625V23.4375C26.25 24.6807 25.7561 25.873 24.877 26.7521C23.9979 27.6311 22.8057 28.125 21.5625 28.125H8.43745C7.19425 28.125 6.00196 27.6311 5.12289 26.7521C4.24381 25.873 3.74995 24.6807 3.74995 23.4375V14.0625C3.74995 13.8638 3.81182 13.6781 3.9187 13.5244L3.55307 12.3956C3.169 11.2133 3.27028 9.92691 3.83464 8.81929C4.399 7.71167 5.38021 6.87359 6.56245 6.48938L19.0443 2.43375C20.2266 2.04968 21.513 2.15096 22.6207 2.71532C23.7283 3.27967 24.5664 4.26088 24.9506 5.44313L25.3856 6.78C25.4624 7.01646 25.4421 7.27374 25.3293 7.49527C25.2164 7.71679 25.0202 7.88441 24.7837 7.96125ZM17.7637 8.27062L20.1731 4.09688C19.9864 4.11842 19.8024 4.15862 19.6237 4.21688L17.2893 4.97438L14.8368 9.22125L17.7637 8.27062ZM22.0668 4.56L22.0293 4.62938L20.4281 7.40438L23.3118 6.46688L23.1675 6.0225C22.9739 5.42592 22.5865 4.91114 22.0668 4.56ZM14.6231 5.84063L11.6981 6.79125L9.2437 11.0381L12.1687 10.0875L14.6231 5.84063ZM5.48057 12.2625L6.5812 11.9062L9.03183 7.6575L7.14183 8.2725C6.43248 8.50303 5.84375 9.00588 5.50514 9.67045C5.16652 10.335 5.10576 11.1069 5.3362 11.8163L5.48057 12.2625Z" fill="#A7A7A7"/>
</svg>
