<svg width="21" height="25" viewBox="0 0 21 25" fill="none" xmlns="http://www.w3.org/2000/svg">
<path d="M2.125 7.8125V23.4375C2.125 24.2969 2.82812 25 3.6875 25H17.75C18.6094 25 19.3125 24.2969 19.3125 23.4375V7.8125H2.125ZM6.8125 21.875H5.25V10.9375H6.8125V21.875ZM9.9375 21.875H8.375V10.9375H9.9375V21.875ZM13.0625 21.875H11.5V10.9375H13.0625V21.875ZM16.1875 21.875H14.625V10.9375H16.1875V21.875ZM19.7031 3.125H14.625V1.17188C14.6238 0.861454 14.4999 0.5641 14.2804 0.344598C14.0609 0.125096 13.7635 0.00123429 13.4531 0L7.98438 0C7.67395 0.00123429 7.3766 0.125096 7.1571 0.344598C6.9376 0.5641 6.81373 0.861454 6.8125 1.17188V3.125H1.73438C1.42357 3.125 1.1255 3.24846 0.905734 3.46823C0.685965 3.688 0.5625 3.98607 0.5625 4.29688V6.25H20.875V4.29688C20.875 3.98607 20.7515 3.688 20.5318 3.46823C20.312 3.24846 20.0139 3.125 19.7031 3.125ZM13.0625 3.125H8.375V1.58281H13.0625V3.125Z" fill="#A7A7A7"/>
</svg>
