<svg width="259" height="100" viewBox="0 0 259 100" fill="none" xmlns="http://www.w3.org/2000/svg">
<path d="M82.0367 75.9744L47.7425 3.14573C46.8744 1.31976 45.0751 0.116705 43.0559 0.0122183C41.0321 -0.123378 39.1009 0.877794 38.0453 2.60977L0.849444 62.8545C-0.305283 64.7117 -0.280988 67.0693 0.911766 68.9022L19.0971 97.0639C20.5101 99.235 23.1829 100.218 25.6658 99.4795L78.4395 83.8693C80.0472 83.3992 81.3721 82.2552 82.0716 80.7333C82.7615 79.2186 82.7496 77.477 82.0391 75.9719L82.0367 75.9744ZM74.3587 79.098L29.5771 92.34C28.211 92.7463 26.8998 91.5622 27.1839 90.1837L43.1831 13.5758C43.4822 12.1424 45.4615 11.9156 46.0872 13.2418L75.7048 76.1364C75.9698 76.7037 75.973 77.3585 75.7136 77.9283C75.4541 78.498 74.958 78.9255 74.3562 79.098H74.3587Z" fill="black"/>
<path d="M121.336 53.8359H112.641V48.3516H121.336C122.68 48.3516 123.773 48.1328 124.617 47.6953C125.461 47.2422 126.078 46.6172 126.469 45.8203C126.859 45.0234 127.055 44.125 127.055 43.125C127.055 42.1094 126.859 41.1641 126.469 40.2891C126.078 39.4141 125.461 38.7109 124.617 38.1797C123.773 37.6484 122.68 37.3828 121.336 37.3828H115.078V66H108.047V31.875H121.336C124.008 31.875 126.297 32.3594 128.203 33.3281C130.125 34.2812 131.594 35.6016 132.609 37.2891C133.625 38.9766 134.133 40.9062 134.133 43.0781C134.133 45.2812 133.625 47.1875 132.609 48.7969C131.594 50.4062 130.125 51.6484 128.203 52.5234C126.297 53.3984 124.008 53.8359 121.336 53.8359ZM145.312 46.1719V66H138.562V40.6406H144.914L145.312 46.1719ZM152.953 40.4766L152.836 46.7344C152.508 46.6875 152.109 46.6484 151.641 46.6172C151.188 46.5703 150.773 46.5469 150.398 46.5469C149.445 46.5469 148.617 46.6719 147.914 46.9219C147.227 47.1562 146.648 47.5078 146.18 47.9766C145.727 48.4453 145.383 49.0156 145.148 49.6875C144.93 50.3594 144.805 51.125 144.773 51.9844L143.414 51.5625C143.414 49.9219 143.578 48.4141 143.906 47.0391C144.234 45.6484 144.711 44.4375 145.336 43.4062C145.977 42.375 146.758 41.5781 147.68 41.0156C148.602 40.4531 149.656 40.1719 150.844 40.1719C151.219 40.1719 151.602 40.2031 151.992 40.2656C152.383 40.3125 152.703 40.3828 152.953 40.4766ZM163.266 40.6406V66H156.492V40.6406H163.266ZM156.07 34.0312C156.07 33.0469 156.414 32.2344 157.102 31.5938C157.789 30.9531 158.711 30.6328 159.867 30.6328C161.008 30.6328 161.922 30.9531 162.609 31.5938C163.312 32.2344 163.664 33.0469 163.664 34.0312C163.664 35.0156 163.312 35.8281 162.609 36.4688C161.922 37.1094 161.008 37.4297 159.867 37.4297C158.711 37.4297 157.789 37.1094 157.102 36.4688C156.414 35.8281 156.07 35.0156 156.07 34.0312ZM182.555 58.9922C182.555 58.5078 182.414 58.0703 182.133 57.6797C181.852 57.2891 181.328 56.9297 180.562 56.6016C179.812 56.2578 178.727 55.9453 177.305 55.6641C176.023 55.3828 174.828 55.0312 173.719 54.6094C172.625 54.1719 171.672 53.6484 170.859 53.0391C170.062 52.4297 169.438 51.7109 168.984 50.8828C168.531 50.0391 168.305 49.0781 168.305 48C168.305 46.9375 168.531 45.9375 168.984 45C169.453 44.0625 170.117 43.2344 170.977 42.5156C171.852 41.7812 172.914 41.2109 174.164 40.8047C175.43 40.3828 176.852 40.1719 178.43 40.1719C180.633 40.1719 182.523 40.5234 184.102 41.2266C185.695 41.9297 186.914 42.8984 187.758 44.1328C188.617 45.3516 189.047 46.7422 189.047 48.3047H182.297C182.297 47.6484 182.156 47.0625 181.875 46.5469C181.609 46.0156 181.188 45.6016 180.609 45.3047C180.047 44.9922 179.312 44.8359 178.406 44.8359C177.656 44.8359 177.008 44.9688 176.461 45.2344C175.914 45.4844 175.492 45.8281 175.195 46.2656C174.914 46.6875 174.773 47.1562 174.773 47.6719C174.773 48.0625 174.852 48.4141 175.008 48.7266C175.18 49.0234 175.453 49.2969 175.828 49.5469C176.203 49.7969 176.688 50.0312 177.281 50.25C177.891 50.4531 178.641 50.6406 179.531 50.8125C181.359 51.1875 182.992 51.6797 184.43 52.2891C185.867 52.8828 187.008 53.6953 187.852 54.7266C188.695 55.7422 189.117 57.0781 189.117 58.7344C189.117 59.8594 188.867 60.8906 188.367 61.8281C187.867 62.7656 187.148 63.5859 186.211 64.2891C185.273 64.9766 184.148 65.5156 182.836 65.9062C181.539 66.2812 180.078 66.4688 178.453 66.4688C176.094 66.4688 174.094 66.0469 172.453 65.2031C170.828 64.3594 169.594 63.2891 168.75 61.9922C167.922 60.6797 167.508 59.3359 167.508 57.9609H173.906C173.938 58.8828 174.172 59.625 174.609 60.1875C175.062 60.75 175.633 61.1562 176.32 61.4062C177.023 61.6562 177.781 61.7812 178.594 61.7812C179.469 61.7812 180.195 61.6641 180.773 61.4297C181.352 61.1797 181.789 60.8516 182.086 60.4453C182.398 60.0234 182.555 59.5391 182.555 58.9922ZM200.25 45.8906V66H193.477V40.6406H199.828L200.25 45.8906ZM199.312 52.4297H197.438C197.438 50.6641 197.648 49.0391 198.07 47.5547C198.508 46.0547 199.141 44.7578 199.969 43.6641C200.812 42.5547 201.852 41.6953 203.086 41.0859C204.32 40.4766 205.75 40.1719 207.375 40.1719C208.5 40.1719 209.531 40.3438 210.469 40.6875C211.406 41.0156 212.211 41.5391 212.883 42.2578C213.57 42.9609 214.102 43.8828 214.477 45.0234C214.852 46.1484 215.039 47.5 215.039 49.0781V66H208.289V49.8281C208.289 48.6719 208.133 47.7812 207.82 47.1562C207.508 46.5312 207.062 46.0938 206.484 45.8438C205.922 45.5938 205.242 45.4688 204.445 45.4688C203.57 45.4688 202.805 45.6484 202.148 46.0078C201.508 46.3672 200.977 46.8672 200.555 47.5078C200.133 48.1328 199.82 48.8672 199.617 49.7109C199.414 50.5547 199.312 51.4609 199.312 52.4297ZM214.406 51.6562L211.992 51.9609C211.992 50.3047 212.195 48.7656 212.602 47.3438C213.023 45.9219 213.641 44.6719 214.453 43.5938C215.281 42.5156 216.305 41.6797 217.523 41.0859C218.742 40.4766 220.148 40.1719 221.742 40.1719C222.961 40.1719 224.07 40.3516 225.07 40.7109C226.07 41.0547 226.922 41.6094 227.625 42.375C228.344 43.125 228.891 44.1094 229.266 45.3281C229.656 46.5469 229.852 48.0391 229.852 49.8047V66H223.078V49.8047C223.078 48.6328 222.922 47.7422 222.609 47.1328C222.312 46.5078 221.875 46.0781 221.297 45.8438C220.734 45.5938 220.062 45.4688 219.281 45.4688C218.469 45.4688 217.758 45.6328 217.148 45.9609C216.539 46.2734 216.031 46.7109 215.625 47.2734C215.219 47.8359 214.914 48.4922 214.711 49.2422C214.508 49.9766 214.406 50.7812 214.406 51.6562ZM248.766 60.2812V48.9844C248.766 48.1719 248.633 47.4766 248.367 46.8984C248.102 46.3047 247.688 45.8438 247.125 45.5156C246.578 45.1875 245.867 45.0234 244.992 45.0234C244.242 45.0234 243.594 45.1562 243.047 45.4219C242.5 45.6719 242.078 46.0391 241.781 46.5234C241.484 46.9922 241.336 47.5469 241.336 48.1875H234.586C234.586 47.1094 234.836 46.0859 235.336 45.1172C235.836 44.1484 236.562 43.2969 237.516 42.5625C238.469 41.8125 239.602 41.2266 240.914 40.8047C242.242 40.3828 243.727 40.1719 245.367 40.1719C247.336 40.1719 249.086 40.5 250.617 41.1562C252.148 41.8125 253.352 42.7969 254.227 44.1094C255.117 45.4219 255.562 47.0625 255.562 49.0312V59.8828C255.562 61.2734 255.648 62.4141 255.82 63.3047C255.992 64.1797 256.242 64.9453 256.57 65.6016V66H249.75C249.422 65.3125 249.172 64.4531 249 63.4219C248.844 62.375 248.766 61.3281 248.766 60.2812ZM249.656 50.5547L249.703 54.375H245.93C245.039 54.375 244.266 54.4766 243.609 54.6797C242.953 54.8828 242.414 55.1719 241.992 55.5469C241.57 55.9062 241.258 56.3281 241.055 56.8125C240.867 57.2969 240.773 57.8281 240.773 58.4062C240.773 58.9844 240.906 59.5078 241.172 59.9766C241.438 60.4297 241.82 60.7891 242.32 61.0547C242.82 61.3047 243.406 61.4297 244.078 61.4297C245.094 61.4297 245.977 61.2266 246.727 60.8203C247.477 60.4141 248.055 59.9141 248.461 59.3203C248.883 58.7266 249.102 58.1641 249.117 57.6328L250.898 60.4922C250.648 61.1328 250.305 61.7969 249.867 62.4844C249.445 63.1719 248.906 63.8203 248.25 64.4297C247.594 65.0234 246.805 65.5156 245.883 65.9062C244.961 66.2812 243.867 66.4688 242.602 66.4688C240.992 66.4688 239.531 66.1484 238.219 65.5078C236.922 64.8516 235.891 63.9531 235.125 62.8125C234.375 61.6562 234 60.3438 234 58.875C234 57.5469 234.25 56.3672 234.75 55.3359C235.25 54.3047 235.984 53.4375 236.953 52.7344C237.938 52.0156 239.164 51.4766 240.633 51.1172C242.102 50.7422 243.805 50.5547 245.742 50.5547H249.656Z" fill="black"/>
</svg>
