<svg width="35" height="35" viewBox="0 0 35 35" fill="none" xmlns="http://www.w3.org/2000/svg">
<g clip-path="url(#clip0_35_7)">
<path d="M31.7612 26.5908L19.7582 1.10079C19.4544 0.461701 18.8246 0.0406327 18.1179 0.00406229C17.4096 -0.0433965 16.7337 0.307014 16.3642 0.913205L3.34565 21.9989C2.94149 22.6489 2.94999 23.474 3.36746 24.1156L9.73233 33.9722C10.2269 34.732 11.1624 35.0761 12.0314 34.8176L30.5021 29.354C31.0648 29.1895 31.5286 28.7891 31.7734 28.2564C32.0149 27.7263 32.0107 27.1167 31.762 26.59L31.7612 26.5908ZM29.0739 27.6841L13.4003 32.3188C12.9222 32.461 12.4633 32.0466 12.5627 31.5641L18.1624 4.75132C18.2671 4.24964 18.9599 4.17024 19.1789 4.63441L29.545 26.6475C29.6378 26.8461 29.6389 27.0753 29.5481 27.2747C29.4573 27.4741 29.2836 27.6237 29.073 27.6841H29.0739Z" fill="url(#paint0_linear_35_7)"/>
</g>
<defs>
<linearGradient id="paint0_linear_35_7" x1="2.62503" y1="17.5" x2="32.375" y2="17.5" gradientUnits="userSpaceOnUse">
<stop stop-color="#83DE4C"/>
<stop offset="1" stop-color="#414141"/>
</linearGradient>
<clipPath id="clip0_35_7">
<rect width="35" height="35" fill="white"/>
</clipPath>
</defs>
</svg>
